<svg xmlns="http://www.w3.org/2000/svg" version="1.1" viewBox="-5.0 -10.0 110.0 135.0">
 <g>
  <path d="m43.469 84.031c9.6914 0 18.441-4.0781 24.641-10.602 7.3516 4.8711 15.102 7.8086 22.039 0.10156 0.55859-0.60938 0.53125-1.5586-0.078126-2.1211-0.60937-0.55859-1.5586-0.53125-2.1211 0.078125-5.8086 6.2812-11.488 3.7109-17.852-0.35156 1.1719-1.4805 2.2305-3.0508 3.1484-4.7109 6.1016 2.9219 11.559 2.8984 16.898-2.8398 0.55859-0.60938 0.53125-1.5586-0.078125-2.1211-0.60938-0.55859-1.5586-0.53125-2.1211 0.078125-4.4219 4.7695-8.7617 4.4297-13.379 2.2109 0.85156-1.9102 1.5195-3.8984 2.0117-5.9688 5.0898 1.4102 9.1289 0.51172 13.57-4.1484 1.3203-1.4414-0.85938-3.4688-2.1992-2.0391-3.5898 3.8789-7.1289 4.3789-10.809 3.2383 0.32031-2.1992 0.42969-4.5195 0.28906-6.7695 4.7695 1.0391 8.5117 0.03125 12.719-4.3711 1.3203-1.4414-0.85938-3.4688-2.1992-2.0391-3.6016 3.8906-7.1484 4.3789-10.84 3.2305-7.418-41.117-66.391-36.945-67.668 5.1133 0 18.762 15.262 34.031 34.031 34.031zm24.109-14.531c-1.3789-0.91016-2.7891-1.8398-4.2305-2.7109 1.1406-1.3594 2.1484-2.8516 3.0117-4.4492 1.3789 0.91016 2.8008 1.8398 4.2383 2.6797-0.87891 1.5781-1.8906 3.0781-3.0312 4.4805zm6.9219-19.5c0 1.2383-0.078125 2.4688-0.21875 3.6719-1.7188-0.85156-3.4805-1.9609-5.3008-3.1484 0.32031-0.28125 0.53125-0.69922 0.51953-1.1602-0.039062-1.8086-0.28125-3.5898-0.69141-5.3281 1.8086 1.1406 3.6719 2.2109 5.5586 3.0117 0.089843 0.98047 0.14062 1.9609 0.14062 2.9609zm-31.031-31.031c14.879 0 27.328 10.52 30.328 24.512-2.1094-1.0898-4.3398-2.5781-6.5703-4.0508-1.4805-3.3203-3.6484-6.3398-6.3984-8.8008-1.4883-1.2891-3.4492 0.89062-2 2.2305 1.0781 0.96875 2.0508 2.0391 2.9219 3.1797-5.9297-3.2383-12.262-4.7188-18.5 2.0195-1.3203 1.4414 0.85938 3.4688 2.1992 2.0391 6.2695-6.7695 12.391-3.25 19.379 1.3516 0.94922 2.3516 1.5 4.8594 1.6211 7.4219-7.2188-4.7383-15.289-9.4219-23.211-0.85938-1.3086 1.4688 0.82812 3.4609 2.1992 2.0391 8.9297-10 19.07 2.7188 28.301 6.6797-0.42969 1.9414-1.0391 3.8203-1.8203 5.6094-1.3984-0.82812-2.8203-1.7695-4.2891-2.7305 0.46094-1.3984-1.3203-2.5391-2.3984-1.5703-6.8984-4.4297-14.52-8.1602-22-0.078124-0.55859 0.60937-0.53125 1.5586 0.078125 2.1211 0.60938 0.55859 1.5586 0.53125 2.1211-0.078125 5.9805-6.4492 11.809-3.5586 18.398 0.69922-0.87891 1.6797-1.9492 3.2305-3.1797 4.6094-5.6211-2.8203-11.559-3.7383-17.41 2.5898-0.55859 0.60938-0.53125 1.5586 0.078125 2.1211 0.60938 0.55859 1.5586 0.53125 2.1211-0.078126 4.2812-4.6211 8.4883-4.4492 12.949-2.4102-8.8398 7.8711-23.66 7.1914-31.691-1.7383-1.3711-1.4102-3.5195 0.60156-2.1797 2.0586 9.4492 10.391 26.781 10.871 36.719 1.1797 1.4102 0.82031 2.8398 1.7695 4.3203 2.7383-19.078 19.629-53.18 5.9219-53.121-21.762 0-17.109 13.922-31.031 31.031-31.031z"/>
  <path d="m46.219 27.129c1.7305 0.14062 3.3789 0.73047 5.0508 1.1094 1.6602 0 2.0781-2.3789 0.48047-2.9219-1.6719-0.55859-3.4102-0.94922-5.1719-1.1602-1.9414-0.21875-2.3086 2.7383-0.35938 2.9805z"/>
  <path d="m21.82 57.852c-4.6211-12.09 2.6602-26.422 15.109-29.93 1.8711-0.57812 1.0508-3.4102-0.85156-2.8789-14.07 3.9609-22.289 20.172-17.07 33.828 0.71094 1.8398 3.4609 0.83984 2.8203-1.0312z"/>
 </g>
<text x="0.0" y="117.5" font-size="5.0" font-weight="bold" font-family="Arbeit Regular, Helvetica, Arial-Unicode, Arial, Sans-serif" fill="#000000">Created by murmur</text><text x="0.0" y="122.5" font-size="5.0" font-weight="bold" font-family="Arbeit Regular, Helvetica, Arial-Unicode, Arial, Sans-serif" fill="#000000">from Noun Project</text></svg>